<?xml version="1.0" encoding="utf-8"?>
<!-- Generator: Adobe Illustrator 19.1.0, SVG Export Plug-In . SVG Version: 6.00 Build 0)  -->
<svg version="1.1" id="Layer_1" xmlns="http://www.w3.org/2000/svg" xmlns:xlink="http://www.w3.org/1999/xlink" x="0px" y="0px"
	 viewBox="0 0 246.7 300.1" style="enable-background:new 0 0 246.7 300.1;" xml:space="preserve">
<style type="text/css">
	.st0{fill:#FFFFFF;}
	.st1{fill:none;stroke:#000000;stroke-width:2;stroke-linecap:round;stroke-linejoin:round;stroke-miterlimit:10;}
	.st2{fill:#39B54A;}
	.st3{fill:#FFFFFF;stroke:#000000;stroke-width:9.4469;stroke-miterlimit:10;}
</style>
<g>
	<g>
		<g>
			<path class="st2" d="M146,113.1c-0.2-7.6-0.1-15.1,0.2-22.7c-0.8,0.4-1.5,0.9-2.3,1.3c3.2,1.5,3.5,7,4.1,10.1
				c0.7,3.7,1.4,7.5,1.9,11.2c1.2,8,1.8,16,2.1,24.1c0.1,1.9,3.1,1.9,3,0c-0.3-9.6-1.2-19.2-2.8-28.7c-0.8-4.7-1.4-9.6-2.8-14.2
				c-0.7-2.3-1.7-4.2-4-5.2c-1-0.5-2.2,0.1-2.3,1.3c-0.3,7.6-0.3,15.1-0.2,22.7C143,115.1,146,115.1,146,113.1L146,113.1z"/>
		</g>
	</g>
	<g>
		<g>
			<path class="st2" d="M160,135.8c0-10.4,0-20.8,0-31.3c0-1.9-3-1.9-3,0c0,7.5,0,15.1,0,22.6c0,1.9,3,1.9,3,0c0-7.5,0-15.1,0-22.6
				c0-1.9-3-1.9-3,0c0,10.4,0,20.8,0,31.3C157,137.7,160,137.8,160,135.8L160,135.8z"/>
		</g>
	</g>
	<path class="st0" d="M228,92.6c-0.3-6.2-1.8-12.5-2.8-18.6c-0.8-5.3-1.1-11.2-4.4-15.7c-1.7-2.3-4-3.9-6.6-4.7c0-0.9,0-1.8,0-2.8
		c0.2-5-4.8-6.7-8.4-5.3c-3.7-4.1-9.9-4.1-15.2-2.7c-2.4,0.6-3.7,2.3-4.1,4.1c0,0,0,0-0.1,0c-0.5,0-1.1,0.1-1.6,0.3
		c-0.5-0.4-1-0.8-1.6-1.1c-2.6-1.4-6.9-0.9-8.2,2.2c-0.2,0.4-0.3,0.7-0.5,1.1c-2.8-0.2-5.6-0.5-7.9,0.1c-4.4,1.1-8,3.7-11.4,6.5
		c0.3-3.3,0.7-6.5,1.1-9.8c0.4-3-0.5-5.8-3.5-7.1c-2.5-1.1-6.3-0.3-7.5,2.5c-1.8,4.1-3.4,8.3-4.9,12.5c-7.4-0.4-14.9,1-22.2,2.5
		c-0.3,0.1-0.5,0.1-0.7,0.2c-2.1-5.1-6-9.2-11.1-11.5c-7.8-3.4-15.6-0.1-23.7-0.6c-6.5-0.4-14-3.2-18.9,2.2
		c-2.6,0.6-4.7,2.7-4.6,5.7c0.1,3,0.3,6,0.4,9c-4.6,1.2-5.6,8.8-1.1,10.9c0.7,0.3,1.4,0.7,2.2,1c1.3,2.6,4.2,3.6,6.7,3.1
		c0.6,0.3,1.2,0.5,1.8,0.8c0.6,0.3,1.2,0.5,1.8,0.6c0.5,0.2,1,0.4,1.5,0.4c0.3,2.1,0.9,4.3,1.7,6.2c1.9,4.7,3.9,8.9,4,13.9
		c-0.1,1-0.2,2-0.3,3.1c-0.1,0.8-0.1,1.5-0.2,2.3c-0.7,3.8-1.7,7.6-1.1,11.6c0.1,0.9,0.3,1.7,0.5,2.5c0.1,4.6,0.7,9.1,2.2,13.4
		c0.3,1,0.8,1.7,1.4,2.4c0.3,1.7,1.2,3.4,2.8,4.2c1.7,0.8,3.4,1.5,5.2,2.1c-0.2,0.9-0.4,1.7-0.7,2.5c-1.1,3.6-2.6,7.7,0.3,10.9
		c2,2.2,4.6,2.7,6.3,5.3c4.9,7.7,5.4,33.4,18.9,29.7c0.3,5.7,0.7,11.9,4.2,16.3c0.2,2,0.2,4,0.2,6c-0.2,5.9-1.6,12.2,2.6,17.1
		c3.6,4.2,9.3,5.6,14.2,2.8c1.7-0.9,3.2-3.2,3-5.2c-1.1-8.5-2.2-17.3-5.1-25.4c-1-2.7-2.3-5.3-2.6-8.2c0.8-0.6,1.6-1.4,2-2.4
		c0.6,5.4,8.3,6.7,11.1,2.1c4.3-6.8,8.6-13.6,12.9-20.4c1.9-1.4,3.8-2.9,5.8-4.1c3.7-2.2,7.5-4.4,11-7.1
		c6.3-4.9,10.7-10.9,12.1-18.6c3.1,0.9,6.1,1.1,8.3-0.2c1.2-0.7,2.1-1.5,2.6-2.3c0.9,0.4,1.9,0.6,3.1,0.4c1.4-0.2,2.8-1,3.8-2.1
		c0,0,0,0,0,0c3.3,1.6,8,0.5,8.8-3.6c0.4-2.1,0.6-4.1,0.5-6c0.2-0.1,0.5-0.2,0.7-0.4c3.8-2.4,6.1-6,7.1-10.4
		c0.1-0.4,0.1-0.7,0.2-1.1c2.8-0.4,5.5-2.6,5.6-5.8c0.1-1.7,0-3.4-0.2-5.1C226.2,100.6,228.3,96.8,228,92.6z M183.2,86.6
		c0.1,0.8,0.2,1.7,0.4,2.5c-0.3-0.8-0.6-1.5-0.9-2.3C182.8,86.8,183,86.7,183.2,86.6z M135.6,147.7c0.6,0.5,1.2,0.9,1.9,1.3
		c-0.8,1.4-1.5,2.9-2.3,4.3c0.1-1.5,0.2-3,0.3-4.5C135.5,148.5,135.5,148.1,135.6,147.7z M100.1,143.3c0.2,1.5,0.4,3,0.7,4.4
		c-0.5-0.5-1.1-0.9-1.6-1.4C99.5,145.3,99.8,144.3,100.1,143.3z"/>
	<g>
		<path d="M26,36.6c0.7,1.2,1.6,2.2,2.9,2.8c0.8,0.4,1.3,1,1.6,1.9c0.5,1.8,0.8,3.8,2.7,4.8c0.5,0.3,0.5,0.9,0.7,1.4
			c0.5,1.5,1.5,2.6,3.1,2.7c2.1,0.1,3.9,1.4,6.1,1c0.4-0.1,0.9,0.1,1.2,0.3c0.9,0.7,1.8,0.8,2.9,0.5c1.6-0.5,3.5,0.1,4.8-1.5
			c0.4-0.5,1.4-0.3,2.1-0.3c1.3,0,1.9-0.7,1.6-1.9c-0.5-2.6,0.8-3.9,2.8-5.1c3.1-1.7,6.5-1.8,9.7-2.6c3.6-0.9,7.2-0.6,10.7-1
			c2.5-0.3,5.1-1,7.6-0.5c2.6,0.5,5.3,0.2,7.9,0.8c2.2,0.6,4.4,0.4,6.5-0.3c4.2-1.4,7.7-0.4,11,2.2c1.4,1.1,3.3,1.6,4,3.5
			c0,0,0.1,0.1,0.1,0.1c0.4,2.5,2.2,2.2,3.9,2c2.1-0.2,4.1,0.5,6.2,0.4c1.3-0.1,2.6,0,3.6-1.2c0.2-0.3,0.7-0.3,1-0.5
			c3.2-1.2,6.3-2.8,9.7-3.3c1.2-0.2,1.9-1.1,2.8-2c2.2-2.3,3.9-5,5.8-7.5c0.6-0.8,1.1-1.8,1.9-2.5c0.3-0.3,0.7-0.8,0.7-1.3
			c-0.1-2.5,1.4-4.5,2.4-6.5c0.7-1.5,1.2-3.2,2.4-4.5c0.5-0.5,0.5-1.2,0.6-1.8c0.5-2.5,1.6-3.3,4.1-2.9c1.9,0.3,1.7-1.4,2.3-2.3
			c0.6-0.8-0.4-1-0.9-1.4c-0.4-0.2-0.9-0.5-0.8-1.3c1.1,0.7,2,0.4,2.9-0.5c0.9-1,2.2-0.8,3.2,0.2c1,1.1,2,2,0.6,3.7
			c-0.8,1,0.1,2.3,0.6,3.5c-1,0.1-1.5,0.5-1.9,1.6c-0.6,1.7-1.1,3.3-1.2,5.1c-0.1,1.7-0.9,3.1-1.7,4.5c-1.3,2.6-2.4,5.2-3.3,8.1
			c1.9,0.3,3.4-0.9,4.8-1.8c1.3-0.9,2.8-1.1,4.2-1.8c0.3-0.2,0.8-0.4,1,0.1c0.2,0.4-0.2,0.8-0.4,1c-1.1,0.8-2.1,1.5-3.2,2.2
			c-0.4,0.3-0.7,0.6-0.6,1c0.1,0.5,0.6,0.4,0.9,0.5c1.7,0.4,3.2,0.2,4.9-0.6c2.3-1.1,4.7-2.3,7.5-1.3c0.8,0.3,1.6,0.4,2.4,0.4
			c0.6,0,1.3,0.1,1.7,0.5c1.2,1.5,2.6,1.2,4.2,0.7c1.4-0.4,2.8-0.7,4.1-1.1c0.4-0.1,0.9-0.3,0.9-0.8c0-0.5-0.3-0.8-0.7-1
			c-1.2-0.4-2-1.5-3.3-1.9c-0.4-0.1-1-0.5-0.7-1.1c0.3-0.5,0.8-0.1,1.2,0.1c1.7,0.7,3,1.9,4.6,2.8c2.1,1.1,4.2,1.5,6.5,1.5
			c1.8,0,3.6,0,5.4-0.1c2.4-0.1,4,1.1,5.5,2.7c0.4,0.4,0.6,0.9,0.5,1.5c-0.6,2.2,0.6,4,1.8,5.4c2,2.3,4.1,4.6,5.7,7.1
			c0.8,1.2,1.3,2.4,1.5,3.8c0.2,1.4,0.5,2.7,1.5,3.7c1.8,2,3,4.3,5.2,6.1c3,2.4,5,5.7,6.7,9.3c1,2.2,0.9,4.6,1.7,6.9
			c0.3,0.9-0.8,1.8-1.7,2.1c-0.8,0.3-1.6,0-1.9-1c-0.1-0.4-0.5-0.7-0.7-1.1c-0.5-0.7-0.9-1.6-0.6-2.3c1.1-2-0.3-3.4-1-5
			c-1-2.1-1.8-4.3-3.7-5.7c-0.3-0.2-0.5-0.7-0.9-0.5c-0.4,0.2-0.4,0.6-0.5,1c-0.2,0.9,0,1.8,0.4,2.6c1.7,4.1,3,8.4,4.2,12.7
			c0.5,1.8,0.8,3.7,0.6,5.6c-0.2,2,0.1,2.3,2,2.3c0.9,0,1.5,0.3,1.8,1.1c0.5,1.1,0.5,2.3,0.5,3.5c0,1.9-0.9,3.8-0.2,5.7
			c0.1,0.2,0.1,0.6,0.1,0.8c-0.9,3.7,0.3,7.3,0.3,11c0,0.8,0.4,1.6,0.6,2.4c0.5,2.1,0.4,4.2,0.7,6.3c0.2,1.3,0.9,2.4,1,3.8
			c0.1,2.3,0.3,4.6-0.4,6.8c-0.5,1.7,0.2,3.3,0.1,5c-0.1,1.3-0.5,2.1-1.8,2.2c-1.3,0.1-2.5,0.6-3.5,1.2c-1.3,0.7-1.8,2.1-2.1,3.5
			c-0.3,1.6-0.7,3.1-1.7,4.4c-0.4,0.6-1,0.9-1.7,0.8c-0.6-0.1-0.8-0.7-0.9-1.2c-0.2-1-0.8-2-0.2-3.2c0.3-0.5-0.3-0.9-0.7-1.2
			c-0.6-0.6-0.9-1.2-0.5-2c0.2-0.3,0.1-0.8,0-1.1c-0.1-0.3-0.3-0.6-0.7-0.6c-0.3,0-0.4,0.3-0.5,0.6c-0.2,1.2-0.6,2.3-0.2,3.5
			c0.3,1,0.3,2-0.1,3c-0.4,1.2-0.2,2.5-0.1,3.7c0,3.3,0.2,6.6,0.3,9.9c0.1,3.8-0.7,7.5-0.1,11.3c0.4,2.4-0.1,5-0.1,7.5
			c0.1,4.8,0.4,9.7,0.3,14.5c0,2.9,0.9,5.6,0.9,8.4c0,1.9,0.9,3.8,0.3,5.8c-0.9,2.7-0.2,5.5-0.8,8.2c-0.2,1-0.6,1.7-1.6,2
			c-1.1,0.3-2.1,0.5-3-0.4c-1.4-1.5-1.5-1.4-2.6,0.5c-0.7,1.2-3,1.9-4.2,1.3c-0.9-0.4-1.3-1.9-0.6-2.8c0.4-0.5,0.7-1,1.4-1.1
			c0.6-0.2,0.6-0.7,0.2-0.8c-2.1-0.9-1.5-2.6-1.1-3.9c0.8-2.5,0.2-4.8-0.1-7.1c-0.9-7.2-0.8-14.5-0.6-21.8c0.1-3.1,0.2-6.3,0.2-9.4
			c0-2.6,0.2-5.2,0-7.8c-0.1-0.9-0.3-1.2-1.2-0.7c-1.8,1.1-3.6,2.3-5.5,3c-1.8,0.6-3.2,2-5,2.6c-0.7,0.3-1.1,0.9-1.4,1.6
			c-0.6,1.8-0.8,3.7-0.9,5.6c-0.1,1.5,0.2,3.1,0.5,4.7c0.1,1-0.1,2.2,1.8,2.2c-1.5,1.5-2.1,2.9-1.2,4.6c0.2,0.3-0.1,1-0.2,1.4
			c-0.3,1.2-0.3,2.4,0,3.6c0.4,1.4,0.3,2.8-0.4,4.1c-0.3,0.5-0.3,0.9,0.2,1.2c2.3,1.3,2.5,3.3,1.8,5.6c-0.4,1.1-0.4,1.7,1.1,1.8
			c1.3,0.1,1.9,1.2,2.1,2.4c0.2,1.1-0.8,1.5-1.5,1.9c-0.9,0.6-1.9,0.5-2.6-0.5c-0.3-0.5-0.8-0.5-1.3-0.5c-0.9,0-1.7-0.5-2.4-1
			c-1.5-1.1-1.4-2.1,0.2-3c0.4-0.2,0.8-0.3,1-0.7c0.9-1.5,0.4-2.8-1.4-3.2c-1.3-0.3-2.6-0.4-3.8-0.9c-0.9-0.4-1.7,0.6-2.1,1.2
			c-0.4,0.6-0.7,1.6-0.5,2.5c0.2,0.7,0.4,1.6,1.6,1.2c1.4-0.5,2.1,0.9,3,1.5c0.3,0.2,0,0.4,0,0.6c-0.2,0.7-0.1,1.4,0,2.1
			c0.2,1.2,0.2,2.4-0.6,3.4c-0.6,0.8-0.6,1.6-0.1,2.5c0.6,0.9,0.6,1.7-0.2,2.4c-1.5,1.2-1.6,2.8-1.5,4.4c0.2,2.1-0.1,4.3,0.2,6.5
			c0.3,2.2,0.6,4.6,0.9,6.9c0.2,1.5,0.6,2.7,2.3,3.3c1.4,0.5,1.6,1.5,0.6,2.7c-1.1,1.2-2.5,2.2-3.8,3c-3.7,2.4-6.1,5.8-7,10.1
			c-0.3,1.2-1,2.2-1.1,3.4c-0.1,2.1-0.8,4.1-0.8,6.2c0,2.4-0.7,3-3.1,2.9c-0.5,0-1.1,0-1.6-0.1c-1-0.1-1.7,0.3-2.1,1.2
			c-0.5,1.1-0.7,2.2-0.7,3.3c0,1.2-0.2,2.4-0.1,3.5c0.1,1.5,0.6,3.2,1.9,4.2c1,0.8,1.9,1.7,2.7,2.6c0.7,0.8,1.3,0.7,2.1,0.2
			c2.2-1.4,4.7-2.1,7.3-2.5c0.5-0.1,1,0.1,1.5,0.1c3.4,0.1,3.7,0.3,4.8,3.5c0.8,2.2-0.6,3.9-2.9,3.5c-0.9-0.1-1.8-0.6-2.6-1.1
			c-0.8-0.6-1.6-1.1-0.3-2.1c0.8-0.7,0.4-1.5-0.7-1.7c-1.6-0.2-3,0.4-4.3,1.4c-3.3,2.6-6.5,5.3-10.3,7.3c-1.5,0.8-3.1,1-4.7,1.3
			c-2.7,0.5-5.4,0.4-8.1-0.3c-1.7-0.4-2.3-1.6-2.6-4.1c-0.3-2.6,0-5.1,1.1-7.3c0.9-1.8,2.9-2.3,4.7-2.4c2-0.1,4.1-0.3,6.2,0.1
			c1.6,0.3,1.5,0.2,1.4-1.4c-0.2-3-0.3-6,0.5-9c0.5-2,1.7-3.3,3.7-3.4c2.3-0.1,3.2-1.2,3.7-3.3c0.8-3.2,2-6.2,3.1-9.3
			c1.1-3.1,3.1-5.7,5.6-7.9c1.2-1.1,2.3-2.4,1.6-4.1c-1.1-2.7-0.8-5.6-1.2-8.4c-0.4-2.7-0.5-5.3-0.9-8c-0.1-1.1-0.6-2.2-0.6-3.6
			c-1.4,1.1-1.8,2.4-2.4,3.6c-1.8,3.4-4.9,5.2-8.7,4.7c-1.1-0.2-1.5,0.5-1.9,1.2c-1.2,1.8-2.5,3.7-3.7,5.5c-1,1.5-2.4,2.7-4.1,3.4
			c-0.3,0.1-0.5,0.3-0.7,0.6c-0.7,1.6-2,1.7-3.2,0.2c-0.4-0.5-0.4-1.5-1.4-1.3c-0.9,0.2-1.5,0.8-1.9,1.6c-0.3,0.6-0.8,1.2-1.3,1.7
			c-1.5,1.4-1.9,3.5-1.8,5.1c0.1,2,0.6,4.2,1.9,5.9c0.5,0.6,1.3,0.8,2,0.9c1.6,0.2,3.2,0.2,4.8,0.8c1.4,0.4,1.8,1.5,2.2,2.6
			c0.3,0.7,0.2,1.6-0.6,2c-0.8,0.4-1.7,0.1-2.2-0.6c-1.2-1.7-3-1.5-4.7-2c-2.2-0.6-4.2-1-6.5-0.2c-0.6,0.2-1.1-0.4-1.2-1.1
			c-0.1-0.5-0.1-1-0.2-1.5c-0.2-0.8-0.3-1.8-0.8-2.4c-0.7-0.8-1.5,0.2-2.2,0.3c-1.5,0.2-2.9,0.2-4.4,0.2c-1.1,0-1.5-0.6-1.4-1.6
			c0.1-1.4,0.2-2.7,0.8-4c0.3-0.7,0.5-1.4,0.4-2.2c-3.2,0.6-4.7,2.2-5.5,5.2c-0.6,2.4-1.7,4.7-2.6,7c-0.4,0.9-1.4,1.2-2.4,1.3
			c-0.9,0.1-1-0.8-1.4-1.4c-1.9-2.8-0.7-5.7-0.3-8.6c0.2-1.8,0.8-3.5,0.2-5.4c-0.3-1.1-0.9-1.7-2-1.7c-2.3-0.1-2.6-0.3-2.8-2.6
			c0-0.4-0.1-1-0.5-0.9c-0.9,0.1-1.9-0.3-2.6,0.5c-0.6,0.6-0.8,1.3-0.7,2.1c0.1,1.6,0.6,3.2,0.9,4.8c0.3,1.5,0.3,2.9,0.4,4.3
			c0,0.4,0,0.8,0,1.1c0.2,1.8-0.3,2.6-2.2,3.1c-1.7,0.4-1.8,0.7-0.9,2.3c0.8,1.3,2.2,2.1,3.2,3.3c2.2,2.9,5.7,3.9,8.7,5.6
			c0.9,0.5,1.2,0.9,0.9,1.9c-0.3,1.2-1.1,1.6-2.2,1.7c-1,0.1-2.1,0.3-2.6-1.1c-0.1-0.4-0.5-0.7-0.9-1c-2.8-1.5-4.8-3.8-6.7-6.3
			c-2.5-3.2-5-6.4-7.6-9.7c-0.6-0.8-0.8-1.9-1.7-2.6c-0.3-0.3-0.7-0.9-0.2-1.3c0.5-0.3,1.1,0,1.4,0.5c1.2,1.8,2.9,3.2,4.5,4.6
			c1,0.9,1.4,0.7,1.6-0.6c0.1-0.8,0.3-1.6,0.1-2.4c-0.5-2,0.3-4-0.3-6c-0.4-1.3-0.6-1.5-1.9-1c-1.1,0.5-1.9,1.5-3.3,1.5
			c-2.1,0-3.2-0.8-3.2-2.9c0-0.6,0.1-1.2,0.1-1.8c0-0.6,0.1-1.2,0.2-1.9c-1.1,0.4-2.1,0.7-3.1,1.1c-0.6,0.2-0.7,0.8-0.4,1.2
			c0.6,0.7,0.7,1.8,1.7,2.1c0.7,0.3,0.5,0.7,0.2,1.2c-0.4,0.4-0.8,0.4-1.1-0.1c-1.8-3.3-4.5-4-7.9-2.7c-1.2,0.4-2.5,0.4-3.7,0.1
			c-0.8-0.1-1.5-0.4-1.7-1.3c-0.2-0.8,0.5-1.1,0.9-1.6c1.1-1.1,2.2-2.3,3.5-3.1c0.4-0.2,0.5-0.6,0.3-1c-0.2-0.4-0.6-0.5-1-0.4
			c-2.9,0.8-5.9,1.4-8.7,2.6c-2.5,1.1-5.2,0.9-7.7,1.9c-0.3,0.1-0.6,0.1-1,0.2c-0.9,0-1.9,0-2.2-1c-0.3-1.1,0.5-1.7,1.4-2.1
			c3.5-1.3,6.4-3.6,9.2-6.1c0.2-0.2,0.6-0.5,0.4-0.8c-0.1-0.4-0.5-0.4-0.8-0.4c-1.1,0.1-2.3,0.2-3.4,0.5c-2,0.6-4,0.4-6,0.4
			c-0.6,0-1.4-0.1-1.5-1c-0.1-0.9,0.5-1.6,1.4-1.8c0.9-0.2,1.9-0.4,2.8-0.3c3,0.4,5.7-0.6,8.4-1.5c1.2-0.4,2.3-1.2,3.6-1.3
			c0.7-0.1,0.4-0.6,0.3-1c-0.5-1.1-1.1-2.2-1.6-3.4c-1.3-3.6-2-7.4-2.9-11.2c-0.3-1.1-0.3-2.3-0.3-3.4c0-1,0.7-1.6,1.7-1.7
			c1.1-0.1,2.4-0.6,3,0.8c0.5,1.1,0.8,2.4,1.3,3.5c0.5,1.1-0.8,1.1-0.9,1.9c0.5,0.5,1.3,0.2,1.8,0.5c1,0.5,1.3,1.2,0.4,2
			c-1.6,1.5-1.9,3.1-0.9,5c0.5,1.1,0.8,2.3,1.2,3.4c0.4,1.3,1.3,2.1,2.6,2.5c1.9,0.6,2.1,1.2,0.6,2.7c-0.3,0.3-0.7,0.5-1,0.8
			c-1,0.9-1,1.1,0.2,1.7c0.6,0.3,0.8,0.9,1,1.4c0.3,1.2,0.9,1.8,2.4,1.5c1.8-0.3,2.4,0.6,1.6,2.3c-0.2,0.5-0.5,0.9-0.6,1.3
			c-0.3,1.9,1.5,3.3,3.4,2.6c1.2-0.5,2.5-0.7,3.8-0.8c2.4-0.2,3.6,1.2,3.2,3.5c-0.2,1-0.2,1,0.3,2.1c0.6-0.6,1.4-0.8,2.2-1
			c1.1-0.3,1.9-2,1.5-3.5c-0.7-3-0.5-6.1-1.3-9.1c-0.3-1.2-0.9-2.2-1.1-3.4c-0.4-1.7-1-3.3-0.9-5.1c0.1-1.4-0.9-2.5-1.1-4
			c-0.5-4.2-1.2-8.3-2.1-12.4c-0.6-2.7-0.9-5.5-1.7-8.1c-0.5-1.5-1.3-2.9-2.9-3.5c-1.1-0.5-1.9-1.3-2.4-2.4
			c-0.3-0.5-0.5-1.1-1.1-1.1c-2-0.2-2.5-1.8-3.1-3.2c-0.4-0.8-0.8-1.1-1.7-1.1c-1,0-2.1-0.1-3.1-0.2c-0.3,0-0.7,0-0.7-0.5
			c0-0.4,0.4-0.5,0.7-0.5c1.4,0.1,2.7-0.3,4.2-0.4c-0.6-3.1-1.8-5.9-3.5-8.5c-0.1-0.1-0.3-0.3-0.3-0.4c-0.5-2.7-2.9-4.3-3.7-6.7
			c-1.2-3.3-2.7-6.4-3.3-9.9c-0.6-3.1-1.2-6.3-2.3-9.3c-0.2-0.6-0.6-0.9-1.1-1.2c-0.7-0.5-1.3-1-1.4-1.9c-0.1-0.9-1.1-1.2-1.8-1.5
			c-2.6-1.4-4.6-3.3-5.3-6.3c-0.1-0.5-0.4-1-0.7-1.5c-0.4-0.8,0-2.2,0.8-2.5c0.9-0.3,1.5,0.1,1.9,1c0.8,1.7,1.4,3.6,2.6,5.1
			c1.2,1.4,1.6,1.5,3.2,0.8c2.4-1.2,2.9-1,4.5,1.3c0.5,0.7,0.9,1.3,2,0.7c1.3-0.7,2.8-0.5,4.1,0.1c0.7,0.3,1.3,0.4,2-0.1
			c0.4-0.3,0.9-0.4,1.4-0.4c1.2-0.1,2.4-0.4,3.4-1.1c0.6-0.5,1.4-0.5,2,0c0.6,0.6,0.6,1.4,0.2,2.1c-1.1,2.2-5.6,4.8-8,4.4
			c-1.2-0.2-2.2-0.7-3.5-0.7c-2.1,0.1-2.8,0.8-2.3,2.8c0.6,2.4,1.4,4.6,2.4,6.9c0.2,0.5,0.4,0.9,0.3,1.4c-0.5,3.6,1.6,6.4,2.8,9.5
			c0.2,0.5,0.7,0.9,1.1,1.2c0.9,0.6,1.4,1.5,1.5,2.5c0.1,1.8,1,3.1,2.3,4.2c0.8,0.6,0.6,1.7,1,2.5c0.8,1.4,1.8,2.7,1.6,4.6
			c-0.1,0.8,0.7,1.3,1.5,1.6c0.5,0.2,0.9,0.3,1.6,0.5c-0.8,0.9-0.4,1.4,0.2,2.1c1.7,1.9,3.4,3.8,5.3,5.5c0.8,0.7,1.3,1.6,1.2,2.8
			c-0.1,1.1,0,2.2,0.9,3.1c0.1,0.1,0.3,0.3,0.3,0.4c-0.3,2.5,1.7,2.1,3.1,2.4c0.8,0.1,1.6,0.1,2.7,0.2c-1.3,1.1-2.6,0.6-3.7,0.6
			c-1.4,0-1.7,0.3-1.5,1.8c0.3,2.9,0.8,5.7,1.5,8.5c0.5,1.8,0.1,3.7,0.7,5.4c1,3,0.7,6.3,2.5,9c0.5,0.7,0.5,1.7,0.7,2.5
			c0.2,0.9,0.6,1.3,1.6,1.3c1.5,0,2.4,1,2.7,2.4c0.2,0.6,0.4,1.1,1,1.3c0.8,0.3,1.4,0.9,1.7,1.7c0.1,0.4,0.3,0.8,0.8,0.7
			c0.5-0.1,0.4-0.6,0.4-0.9c-0.5-4.4,0.3-8.8-1-13.2c-0.1-0.2-0.2-0.5-0.1-0.6c1.4-2.5-0.1-4.9-0.3-7.3c-0.3-4.3-2.8-7.8-4.4-11.6
			c-0.1-0.2-0.3-0.5-0.5-0.6c-0.9-0.3-0.9-0.5-0.6-1.6c0.4-1.2-0.2-2.7-0.8-3.9c-1-2.1-0.9-4.3-0.9-6.5c0-0.3,0.1-0.5,0.1-0.8
			c0-2.4,0-2.4-2.3-2c-0.5,0.1-1,0-1.3-0.4c-1.3-1.5-2.8-2.1-4.8-1.8c-0.5,0.1-1.6,0.3-1.6-0.5c0-0.7,1-0.5,1.5-0.5
			c2.4,0,4.5-0.6,6.4-2.4c1.2-1.1,3.2-2.1,5.1-0.8c0.8,0.5,1.3,0.1,1.7-0.7c1.8-4.1,5-7.1,8.2-10.1c1.4-1.3,3.2-1.9,5.2-2.1
			c0.4,0,0.9,0.1,1.1-0.4c0.2-0.4-0.2-0.7-0.4-1c-1.2-1.6-2.5-3-3.4-4.8c-0.2-0.4-0.6-1.2-1.2-0.7c-0.6,0.4-0.3,1.1,0,1.7
			c0.4,0.7,1.2,1.1,1,2.1c-0.1,0.5,0.5,1.2-0.4,1.5c-0.7,0.2-1.4,0.2-2-0.4c-1.5-1.5-2.5-3.3-2.8-5.4c-0.5-3.6-1.5-6.9-3-10.2
			c-0.6-1.2-0.8-2.5-2-3.6c-0.1,1.5-0.5,2.5-2,2.7c-0.8,0.1-1.4,0.1-1.9-0.7c-2.1-3.1-5-5.5-7.1-8.6c-0.3-0.5-0.8-0.9-1.4-0.5
			c-0.7,0.3-0.5,1-0.1,1.4c0.9,1.1,1.2,2.6,1.7,3.9c0.8,1.8,1.7,3.4,2.9,4.9c1.1,1.3,1,2.9,0.7,4.4c-0.3,1.2-1.6,1.6-2.8,1.2
			c-1.3-0.5-2.2,0.1-2.4,1.6c-0.1,1.6-0.2,3.3-0.8,4.8c-0.4,1-0.8,2-2,2.5c-0.8,0.4-1.3,0.2-1.3-0.7c0-0.3,0-0.7,0.1-1
			c0.5-1.2,0.4-1.9-1.2-1.9c-1.1,0-1.5-1.7-0.6-2.2c2.3-1.4,3.5-4.1,6.1-5.1c0.7-0.3,0.8-0.7,0.5-1.4c-0.7-1.6-1.3-3.2-1.9-4.9
			c-0.7-1.8-1.5-3.6-2.4-5.4c-0.5-0.8-1-1.5-2-1.8c-1-0.3-1.5-1-1.3-2.1c0.1-0.3,0-0.7,0-1c0-0.8-0.5-1.9,0.8-2.2
			c1.2-0.3,2.3-0.1,3.1,1c0.3,0.4,0.4,0.9,0.6,1.3c0.7,1.5,1.1,1.6,2.6,0.8c1.2-0.7,3.1-0.5,4.2,0.7c1.5,1.6,2.8,3.3,4.1,5
			c0.6,0.8,1.4,1.4,2.1,2.1c0.5,0.5,1,0.3,1.5-0.3c1.4-1.9,3.5-1.6,4.6,0.6c1,2.2,2.5,4.2,4.1,6.1c0.8,1,2.1,1.2,3.2,1.8
			c2.9,1.6,4.6,4.1,6.1,6.9c0.5,0.9,0.9,1.9,1.4,2.8c0.3,0.5,0.7,1,1.3,0.9c0.5-0.1,0.4-0.7,0.5-1.1c0.3-0.8,0.4-1.7,0.1-2.4
			c-0.6-1.5-0.4-3-0.4-4.5c0-1.5,0.5-2.2,1.7-2.2c1.4,0.1,2.4,1,2.1,2.4c-0.1,0.7,0,1.4,0.1,2.1c0.4,2.8,0.3,5.5-0.8,8.1
			c-0.2,0.5-0.4,1.1-1,1.2c-1.6,0.3-3,1-4.2,2.1c-0.6,0.5-1.4,0.7-2.3,0.5c-1.2-0.4-1.6,1.2-2.8,1.3c-1.1,0.1-1.8,1.3-2.9,1.7
			c-0.3,0.1-0.4,0.4-0.3,0.7c0.1,0.3,0.3,0.4,0.6,0.4c0.5,0,1,0,1.5,0.1c2,0.1,4,0.3,5.8,1.5c0.8,0.5,1.8,0.7,2.9,0.8
			c-0.4,0.9-1.2,1.3-1.8,2c-0.7,0.8-0.5,1.9,0.8,3c0.8,0.7,1.1-0.2,1.5-0.6c1.2-1.1,2-2.4,1.2-4.2c-0.1-0.3-0.2-0.8,0.1-0.9
			c1.9-0.7,1.8-3.3,3.8-3.9c0.5-0.1,0.6-0.9,0.7-1.4c0.2-1.5,1.2-1.9,2.5-2.1c0.6-0.1,1.2,0,1.8-0.2c2.3-0.7,2.4-0.9,1.8-3.2
			c-0.9-3.2-2-6.3-3.3-9.3c-0.4-1-1.5-1.6-1.9-2.6c-0.3-0.8-0.7-1.5,0.1-2.2c0.7-0.7,1.5-0.6,2.3-0.2c1.1,0.6,2.1,1.3,2.4,2.7
			c0.6,2.2,1.5,4.3,2.5,6.4c0.9,1.8,3,1.9,4.3,0.3c2-2.4,3.5-5.2,6-7.2c1.5-1.2,3.1-2.4,4.6-3.7c0.9-0.7,1.8-1.5,1-2.9
			c-0.4-0.7,0.1-1.6-0.2-2.4c-0.6-1.6-1.6-2.9-2.5-4.3c-2.3-3.5-4.6-7-6.2-10.8c-1.4-3.3-2.9-6.6-4.2-9.9c-1.7-4.2-2-8.7-3-13
			c-0.2-1,0-1.9,1-2.3c1.1-0.4,1.6,0.4,2.1,1.1c0.7,0.9,0.7,1.9,0.8,3c0.2,1.8,1.4,3.3,2,4.9c1.2,3.6,3.1,6.8,4.9,10.1
			c1,1.9,1.9,3.9,2.9,5.8c1.2,2.1,2.1,4.3,3.2,6.4c0.3,0.5,0.4,0.8,1.1,0.4c3.6-2.1,6.3,0,7.8,2.9c0.6,1.2,1.6,2.2,2,3.5
			c0.2,0.7,0.8,0.6,1.3,0.2c1.1-1.1,2.9-1.7,2.6-3.9c-0.1-0.9,1-1.2,1.8-1.4c1.2-0.3,2.4-0.5,3.6-1.2c1.1-0.6,1.3-0.9,0.5-2.1
			c-1-1.4-1.9-3-2.4-4.8c-0.4-1.7-1-3.4-1.3-5.1c-0.9-4.5-1-9.1-2.5-13.5c-0.3-1-0.4-2-0.4-3.1c0.1-3.6,0.2-7.2,1.4-10.6
			c0.5-1.3,0.5-2.6,0.8-3.8c0.3-1.2,0.7-2.4,1.3-3.5c0.7-1.6,1.9-2.3,3-1.7c0.9,0.5,1.2,2.4,0.6,3.6c-1,2-2.2,3.9-2.8,6
			c-1.1,3.5-1.7,7.2-0.9,10.9c0.7,3.3,1.2,6.7,1.8,10.1c0.3,1.7,0.9,3.3,1.1,4.9c0.3,2.7,1.6,5,2.5,7.5c1.3,3.6,5.5,5,8.7,3
			c0.5-0.3,0.6-0.6,0.4-1.1c-0.1-0.3-0.2-0.5-0.4-0.7c-2.3-2.7-1.8-6-2-9c-0.4-6.8,0.4-13.7,1-20.4c0.3-3.9,0.3-7.8,0.5-11.7
			c0.1-1.9,0.4-3.9,1.8-5.5c0.5-0.6,1.1-0.9,1.9-0.7c0.6,0.1,1.3,0.2,1.9,0.4c2.2,0.6,3.7,2.5,3.6,4.8c-0.1,1.6-0.2,3.2,0.3,4.9
			c0.2,0.9-0.5,1.3-1.2,1.4c-0.8,0.2-0.8-0.6-0.9-1.1c-0.2-2.2-1.5-4-1.8-6.1c-0.2-1.1-0.8-1.1-1.5-0.2c-0.3,0.4-0.4,0.9-0.4,1.4
			c-0.2,2.4,0,4.8-0.6,7.1c-0.5,2.3-0.2,4.8-1,7c-0.3,0.9,0.1,1.4,1,1.1c1.2-0.3,1.5,0.6,1.7,1.3c0.3,0.8-0.2,1.6-1.2,1.9
			c-2.1,0.7-2,0.7-2,3c0,2-0.3,4-0.4,6.1c-0.1,3.5,0.2,6.9,1.5,10.1c0.2,0.6,0.6,1.2,1.2,1.3c0.8,0.1,0.9-0.7,1.1-1.2
			c0.9-1.6,1.8-3.2,2.7-4.9c0.2-0.3,0.3-0.8,0.3-1.1c-0.3-1.9,0.9-3,2.2-3.9c1.8-1.4,2.6-3.3,3.1-5.4c0.5-2.1,0.5-4.3,0.9-6.5
			c0.2-1.1,0.4-2.3,2.1-2.1c0.6,0.1,0.9-0.5,0.9-1.1c0.1-1,0-2.1-0.2-3.1c-1.2-5.2-1.8-10.6-2.8-15.9c-0.5-2.5-0.8-5.1-1.1-7.6
			c-0.4-2.9-2.4-5.1-3.6-7.7c-0.1-0.2-0.3-0.4-0.5-0.7c-1.4-2.7-3.7-3.6-6.5-3.8c-0.5,0-1,0-1.1-0.5c-0.5-1.7-1.9-2-3.2-2.5
			c-0.5-0.2-0.9-0.4-1.3-0.7c-0.7-0.5-1.3-0.6-2.1-0.1c-1.2,0.6-2,0.1-2.2-1.2c-0.1-0.5-0.1-1.1-0.2-1.6c-0.2-0.9-0.3-2-1.7-1.3
			c-0.3,0.1-0.7,0-0.9-0.3c-0.3-0.5-0.2-1,0.2-1.4c1.9-1.5,0.9-3.9,1.8-5.8c0.4-0.8-0.6-1.2-1.1-1.5c-0.5-0.3-0.9,0.2-1.1,0.7
			c-0.5,1.3-1.5,1.6-2.8,1.6c-1.1,0-1.8,0.1-1.4,1.6c0.3,1.1-0.3,1.8-1.3,2.3c-2,0.9-3.9,1.9-5.9,2.9c-1,0.5-1.5,1.4-2.3,2
			c-1.9,1.3-3.9,2.7-6.3,2.9c-2.3,0.1-3.9,1.6-5.6,3c-0.8,0.7-1.8,1-2.8,1.3c-3.5,1-6.9,2.3-9.8,4.8c-1.8,1.6-4.2,1.4-6.4,1.6
			c-0.4,0-0.9-0.1-1.3,0c-0.8,0.1-1.3,0.7-1.1,1.5c0.2,0.6,0.6,1.4,1.6,1c0.9-0.4,2-0.5,2.4,0.5c0.4,0.9,0.4,2.1-0.6,2.8
			c-1,0.7-1.9,1.1-2.9,0.1c-0.5-0.5-1.1-0.7-1.7-0.9c-1.3-0.4-1.7-0.1-1.7,1.2c0,0.4,0,0.7-0.1,1.1c-0.4,0.9,0,1.3,0.9,1.5
			c2.1,0.4,2.3,0.9,1,2.7c-0.8,1.1-1.2,2.4-2.9,2.7c-1.8,0.2-3.5,0.1-5-0.8c-0.7-0.4-0.9-1.1-0.6-1.8c0.3-0.7,0.6-1.3,1.2-1.8
			c-0.7-0.4-1.8-0.2-2-1.2c-0.2-0.8,0.5-1.4,0.7-2.1c0.7-2.3,3.1-3.3,3.9-5.5c0.8-2.2,1.8-4.4,2.3-6.8c0.2-0.9-0.1-1.4-0.8-1.7
			c-1.6-0.8-3.1-1.3-4.9-0.1c-1.4,1-3,1.8-4.7,2.3c-0.7,0.2-1.2,0.7-1.3,1.5c-0.1,0.6-0.4,1.1-0.5,1.7c-0.4,2.5-0.4,2.5,1.9,1.7
			c1.8-0.6,2.8,0.3,2.8,2.2c0,1.6-0.2,3.1-1,4.5c0,0-0.1,0.1-0.1,0.1c0.8,2.9-2,4.2-2.9,6.3c-0.1,0.2-0.3,0.5-0.4,0.7
			c-0.4,1,0.1,1.8,1.1,1.4c1.5-0.6,2.5,0,3.6,0.9c-0.6,0.5-1.1,1-1.8,1.6c1.4,0.4,2.8,0.4,4.2,0.8c1.5,0.5,2.6,2.1,2.3,3.7
			c-0.1,0.4-0.4,0.5-0.7,0.7c-2.6,1.1-5.2,2.3-8,2.5c-3.3,0.3-6.6,0.7-9.8,1.7c-0.6,0.2-1,0.5-1.2,1c-0.2,0.5,0.4,0.7,0.7,1
			c0.5,0.4,1,0.8,0.6,1.5c-0.4,0.7-1,0.4-1.6,0.1c-1.1-0.5-1.5-0.3-1.2,0.9c0.5,2.4,1.2,4.7,1.9,7.1c0.1,0.4,0.3,0.7,0.8,0.8
			c0.5,0,0.7-0.4,0.8-0.7c0.4-1,1.1-1.8,2.2-1.1c1.1,0.7,0.8,1.7,0.4,2.8c-0.5,1-0.7,2.2-1.9,2.7c-0.4,0.2-0.5,0.5-0.3,1
			c0.8,2.3,1.7,4.4,2.8,6.6c0.5,1,0.2,2.5-0.7,3c-1,0.6-2.3,0.2-3-0.8c-1-1.5-1.2-3.2-1.7-4.9c-0.4-1.4-0.8-2.7-1.6-3.9
			c-0.8-1.3-1.2-2.7-1.3-4.3c-0.1-2.2-1.1-4.2-1.9-6.3c-0.6-1.4-1.2-2.8-1.7-4.3c-0.5-1.3-0.6-2.6,1.1-3.3c0.3-0.1,0.5-0.4,0.6-0.7
			c0.6-2.4,1.2-4.7,0-7.1c-0.2-0.4-0.4-0.8-0.5-1.2c-0.6-1.5-0.1-2.3,1.5-2.5c0.3,0,0.7-0.1,1,0c1.1,0.3,1.6-0.3,1.9-1.3
			c0.6-2.1,1.3-4.2,1.8-6.3c0.4-1.4,1-2.5,2.4-3c1.5-0.5,1.6-2.2,2.3-3.3c0.7-1.1,1.1-2.4,1.5-3.6c0.5-1.5,0-2.1-1.5-1.7
			c-3.8,1-7.2,2.8-9.4,6.2c-2.3,3.4-5.1,3.4-7-0.3c-0.2-0.3-0.3-0.7-0.5-1c-0.3-0.5-0.8-0.9-1.3-0.8c-0.5,0.1-0.6,0.7-0.7,1.2
			c-0.5,2.3-1.8,2.8-3.5,1.3c-1.2-1-2.6-1.2-4-0.4c-0.6,0.3-1.3,0.7-1.9,0.9c-1.1,0.3-1.9,0.7-2.1,2.1c-0.2,1.4-1.6,1.9-3,1.5
			c-1.1-0.4-1.2-1.2-0.8-2.8c0.6-2.2,2.1-3.1,4.3-3.5c2.6-0.5,5-1.5,7.7-1.3c0.9,0.1,1.5-0.8,1.6-1.6c0.1-1.2,0.6-2.3,0.5-3.6
			c-0.1-0.8,0.2-1.4,1-1.4c1-0.1,0.9-0.7,0.8-1.4c-0.1-0.7-0.4-1.4-0.3-2.1c0-1.3-0.3-2-1.7-2.2c-1.1-0.1-1.4-1.1-1-2.1
			c0.3-0.8,0.5-1.6,0.5-2.5c0-1.7-0.9-2.1-2.4-2.1c-0.4,0-0.9-0.2-1.2-0.4c-1.5-1-3.3-1.3-5-1.7c-1.4-0.4-2.6-0.4-3.9,0.4
			c-1.3,0.8-2.9,0.7-4.3,0.1c-1.2-0.6-2.4-0.5-3.5-0.1c-2.9,1-5.7,1.2-8.8,0.6c-2.8-0.6-5.8-1.3-8.7-0.5c-1.1,0.3-2.4,0.3-3.2,1.4
			c-0.3,0.5-0.9,0.5-1.5,0.5c-1.1,0-2.3,0-3.4,0c-1.8,0-2.3,0.5-1.8,2.3c0.4,1.6,0.2,3.2-0.1,4.8c-0.1,0.4-0.1,0.7,0,1.1
			c0.4,2.3,0,4.5-0.6,6.8c-0.5,2-0.8,3.9,0.1,5.9c0.4,0.7,0.7,0.8,1.4,0.6c1.8-0.7,3.6-0.9,5.5-1c2.1-0.1,4.2,0,6.3,0
			c0.8,0,1.3,0.2,1.5,0.9c0.5,1.8,1,3.7,1.9,5.3c0.3,0.6,0.1,1.3-0.4,1.6c-0.8,0.5-0.6,1.1-0.4,1.7c0.8,2.1,0.6,4.6,2,6.5
			c0.3,0.4,0.2,1,0.2,1.6c0,1.2-0.4,2.4,0.4,3.5c0.3,0.4,0,0.7-0.2,1c-1,1.8-1.2,3.9-1.1,5.9c0,2.5-0.5,4.9-0.6,7.3
			c-0.1,2.8-1.3,5.2-1.9,7.8c-0.5,1.9-0.1,3.7-0.3,5.6c-0.2,1.6,1.2,2.5,2.7,1.8c2.5-1.1,5.5-0.3,7.1,1.9c1.4,1.9,2.7,3.9,3.9,5.9
			c1,1.6,2.9,2.3,4.7,1.7c0.2-0.1,0.5-0.1,0.6-0.3c0.8-2.1,2.8-3.3,3.5-5.4c0.6-1.8,1.7-3.2,3.6-3.7c1.7-0.5,3.4-1.3,5.2-0.3
			c0.7,0.4,1.4,0.1,2.1-0.4c1.1-0.9,2.1-0.9,2.7-0.1c0.7,0.9,0.3,2-0.4,3c-1,1.3-2.1,1.9-3.6,2.2c-1.2,0.2-1.6,1.7-1.2,3.4
			c0.5,2-0.5,3.4-2.4,3.6c-1.5,0.1-2.6-1.1-2.1-2.5c0.4-1.5,1-2.9,1.4-4.4c0.1-0.6,0.2-1.1-0.4-1.3c-0.6-0.2-1,0-1.4,0.5
			c-1.2,1.4-1.4,3.4-2.8,4.7c-0.5,0.4,0.1,0.8,0.3,1.3c0.4,0.6,1.6,1.2,0.9,2c-0.6,0.8-1.6,1.3-3,0.8c-1.8-0.7-3.7-1-5.7-0.1
			c-1.9,0.9-3.9,0.3-5.6-0.7c-0.7-0.4-1.3-0.8-2.1-0.9c-1.2-0.2-1.9-1.1-2.5-2c-0.7-1,0.4-2.6,1.7-2.7c0.4,0,0.8,0,1.3,0.1
			c-0.3-1.8-1.7-2.4-2.7-3.5c-0.5-0.5-0.9-0.2-1.1,0.4c-0.1,0.4,0,0.8-0.1,1.1c-0.2,1-0.6,1.9-1.8,2.1c-1.9,0.3-2.8-0.1-3.1-1.5
			c-0.5-2.2-1.7-4.1-2-6.4c-0.2-1.5-1.3-3.2-2.2-4.7c-0.5-0.7-0.5-1.5-0.6-2.3c-0.3-3.9-0.6-7.8-0.9-11.7c-0.1-1.2-0.4-1.9-1.8-1.4
			c-0.8,0.2-1.7,0.2-2.1-0.7c-0.4-0.9,0.4-1.4,1-1.9c1.6-1.4,1.6-1.4,0.3-3.2c-0.2-0.3-0.6-0.6-0.5-0.8c0.6-2.1-1.3-3.7-1.2-5.7
			c0-0.9-0.3-1.3-1.1-1.1c-0.8,0.1-1.4-0.2-1.9-0.7c-0.5-0.5-1-0.9-1.7-0.9c-1,0-1.3-0.7-1.5-1.5c-0.5-2-1.2-4-1.8-5.9
			c-0.8-2.9-2.3-6-0.9-9.2c0.4-0.9-0.6-1.2-1.3-1.2c-0.5,0-1.2-0.1-1.6,0.1c-1.8,1.1-3.9-0.8-5.6,0.6c-2-1.1-4.3,1-6.3-0.8
			c-0.5-0.5-1.3,0-1.9,0c-1.7,0.1-3.1-0.7-4.5-1.2c-1.9-0.6-3.8-0.3-5.7-0.9c-1.5-0.5-3-0.9-4.5-1.5c-1-0.4-1.7-1.4-2.3-2.3
			c-0.7-1.2-1.7-2.1-2.8-2.9c-0.4-0.2-0.8-0.4-0.9-0.9c-0.5-2-2-3.5-2.6-5.4c-0.3-0.8-0.5-1.7-1.5-2c-0.4-0.1-0.4-0.5-0.4-0.8
			c0-0.3,0-0.8-0.2-0.9c-2-1.4-1.5-3.7-2-5.6c-0.5-2-0.8-4.2-1.3-6.3c-0.5-2-1.2-3.8-3.2-4.7c-1.9-0.8-1.7-2.5-2.1-3.9
			c-0.7-2.5,1.3-3.9,2.4-5.5c1.4-2,4.9-1.3,6,1c1.3,2.6,2.7,5.2,4,7.8c0.6,1.2,1.6,2.3,2.9,3c0.7,0.4,1.5,1,1.4,1.7
			c-0.2,1.5,0.7,2.2,1.5,3C25.5,36.1,25.8,36.4,26,36.6L26,36.6z"/>
		<path d="M86.4,48.5c1.3,0.4,2.8,0.3,4.2-0.1c0.8-0.2,1.4,0.3,2,0.9c0.9,0.9,1.7,1.9,3.2,1.9c0.9,0,1.6,0.8,1.7,1.7
			c0.2,1-0.5,1.6-1.2,1.9c-0.8,0.4-1.6,0.9-2.4,1.4c-0.3,0.1-0.6,0.3-0.6,0.7c0.2,2.1,0.1,2.9-0.7,4.4c-0.2,0.3-0.3,0.6-0.3,0.9
			c-0.2,0.9,0.2,2.2-0.8,2.7c-1.6,0.8-3.1,2.2-5.1,2c-1-0.1-1.8-0.4-2.4-1.2c-1.1-1.4-2.2-2.8-3.3-4.2c-0.2-0.3-0.5-0.6-0.5-1
			c0-1.4-0.6-2.3-1.9-3c-1-0.5-1.6-1.6-1.9-2.8c-0.2-0.8-0.1-1.5,0.9-1.8c0.9-0.3,1.7-0.1,2,0.9c0.4,1.2,1.3,2,2.3,2.5
			c1.1,0.5,1.5,1.4,1.6,2.5c0.1,1.8,0.9,3.3,2.3,4.4c1.1,0.9,1.8,0.7,2.3-0.6c0.3-0.9,0.5-1.8,1.5-2.3c0.5-0.2,0.5-0.7,0.5-1.1
			c-0.4-2.1,0.1-4,1.5-5.7c0.5-0.6,0.3-0.9-0.3-1.3c-1.8-1-3.5-1.6-5.5-0.5c-1.8,1-2.8,0.9-3.7,0c-0.7-0.7-0.7-1.6,0.2-1.9
			C83.3,49.4,84.6,48.4,86.4,48.5z"/>
		<path d="M102.5,77.8c0-0.8,0.5-1.2,0.9-1.6c1-1.1,2.1-2.1,3-3.3c1.2-1.5,2.5-1.7,4.2-0.8c0.5,0.3,1,0.3,1.5,0.5
			c1.4,0.4,2.1,1.7,1.8,3.1c-0.1,0.4-0.1,0.5,0.3,0.8c2.1,1.4,2.3,2,1.6,4.4c-0.5,1.6-1.3,3.1-1.5,4.8c-0.1,0.8-1,1.1-1.7,0.9
			c-0.8-0.2-0.8-0.9-0.7-1.6c0.4-2.4,1.1-4.7,1-7.1c0-1.6-0.1-1.8-1.6-1.5c-0.2,0-0.4,0.1-0.7,0.1c-0.8,0.1-1.7,0.4-1.8,1.3
			c-0.1,1,0.7,1.4,1.6,1.8c1.8,0.6,2.1,1.7,0.7,3c-1.5,1.4-3.3,1.9-5.3,1.7c-0.9-0.1-1.4,0-0.9,1c0.5,1.1-0.3,1.6-0.8,2.3
			c-0.5,0.7-1.2,0.3-1.8,0.1c-0.9-0.3-1.2-1-1.2-1.9c0-0.4,0.1-0.8,0-1.1c-0.4-1.3,0-1.8,1.3-1.9c1.7-0.1,1-2,2-2.7c0,0,0-0.1,0-0.2
			c-0.2-0.9,1.3-1.4,0.6-2.2C104.3,76.8,103.4,78,102.5,77.8z"/>
		<path d="M108.5,97.2c-1.4,0.2-2.4-0.6-3.5-1.4c-0.4,1-0.7,1.9-0.5,2.9c0.3,1.7,0.9,3.4,0.9,5.1c0,3.1,1.3,6.2,0.6,9.4
			c-0.1,0.5-0.3,0.9-0.7,1c-0.7,0.1-1.6,0.3-2.2-0.4c-0.5-0.6-0.8-1.2-0.7-2.1c0.4-3.3-0.1-6.6-0.8-9.9c-0.4-1.9-1.1-3.8-0.5-5.8
			c0.2-0.7-0.2-1.1-0.5-1.7c-0.5-1.3,0-2.6,1.3-2.8c2.1-0.4,4.2-0.7,6.3-0.9c0.8-0.1,1.9,0.4,1.7,1.4
			C109.5,93.7,110.2,95.8,108.5,97.2L108.5,97.2z"/>
		<path d="M107,289.2c-2.7-0.6-5.7-0.8-8.7-1.1c-1.3-0.1-2.6-0.3-3.9-0.4c-1.4-0.1-2.7-0.1-3.8,0.9c-0.8,0.7-1.8,0.8-2.7-0.1
			c-0.5-0.5-1.2-0.4-1.8-0.6c-0.5-0.2-0.9-0.6-1-1.2c-0.1-0.6,0.4-1,1-1.2c1.1-0.5,2.3-0.6,3.5-0.6c2.8,0.1,5.6,0,8.3,0.6
			c4,1,8,0.7,12,1.2c1.2,0.1,2.3,0,3.4-0.4c0.3-0.1,0.7-0.5,1,0c0.2,0.4-0.1,0.7-0.4,1c-0.8,1.1-1.9,1.4-3.1,1.6
			C109.5,289.1,108.4,289.1,107,289.2z"/>
		<path d="M108.5,97.2c0.9,0.2,1.7-0.2,2.6-0.4c1.4-0.4,1.4,0.1,2.1,1.4c0.9,1.8,0.3,3.1-0.4,4.6c-0.7,1.7-0.8,3.5-1.6,5.2
			c-0.5,1.1-1.3,1.6-2.4,1.5c-1.5-0.1-2-0.9-1.4-2.3c0.4-0.9,0.8-1.8,1.1-2.7c0.3-0.8,0.5-1.6-0.2-2.3c-0.4-0.4-0.4-1-0.3-1.6
			C108.1,99.4,108.3,98.3,108.5,97.2L108.5,97.2z"/>
		<path d="M214.3,76.1c-0.6-1.7,0.4-3.8-0.2-5.8c-0.5-1.9-0.8-3.8-1.2-5.7c-0.3-1.5,0.6-2.3,1.9-2c0.9,0.2,1,1,1.1,1.8
			c0.7,3.7,0.7,7.6,1.5,11.3c0.1,0.3,0.1,0.5,0.1,0.8c0,2-0.4,2.7-1.7,2.7C214.7,79.3,214.3,78.5,214.3,76.1z"/>
		<path d="M180,298.6c0.2-2.4,0.8-3.1,2.5-3.1c0.7,0,1.3,0.2,1.3,0.9c0,2.4,1.2,4.5,1.6,6.8c0.1,0.7,0.3,1.3-0.4,1.7
			c-0.7,0.4-1.5,0.5-2-0.1C181.5,303,180.4,300.9,180,298.6z"/>
		<path d="M93.1,132.3c0.9,0,1.7,0.1,2.4,0.7c0.9,0.7,0.9,1.6,0,2.4c-0.8,0.7-1.6,1.1-2.6,1.2c-1.4,0.1-2.5-0.5-2.7-1.6
			c-0.2-1.2,0.6-2.2,2-2.5C92.5,132.4,92.8,132.3,93.1,132.3z"/>
		<path d="M219.1,40c1.4,0,2.2,0.4,2.2,1.5c0,1.1-0.8,1.5-1.8,1.5c-1,0-2-0.4-2-1.5C217.5,40.5,218.4,40,219.1,40z"/>
		<path d="M119.9,162.2c-0.6,0-1.1-0.1-1.1-0.7c0-0.9,0.1-1.8,0.9-2.3c0.7-0.4,1.3-0.3,1.9,0.2c0.7,0.6,0.2,1.2-0.2,1.7
			C121,161.8,120.5,162.3,119.9,162.2z"/>
		<path d="M122.8,76.9c-0.2,0.9-0.8,1.2-1.7,1.2c-0.4,0-1-0.2-0.9-0.7c0.2-0.8,0.7-1.4,1.6-1.3C122.3,76.2,122.9,76.2,122.8,76.9z"
			/>
		<path d="M108.1,141.4c0,0.6-0.4,0.8-0.9,0.9c-0.2,0-0.4-0.1-0.4-0.4c0.1-0.4,0.3-0.8,0.8-1C107.9,140.9,108,141.1,108.1,141.4z"/>
		<path d="M145.7,139.8c-0.2,0-0.3-0.1-0.3-0.3c0.1-0.3,0.3-0.4,0.6-0.4c0.2,0,0.3,0.1,0.3,0.3C146.3,139.7,146,139.8,145.7,139.8z"
			/>
		<path d="M111.8,244.2c0,0.2-0.1,0.5-0.3,0.5c-0.3,0-0.3-0.2-0.3-0.5c0-0.2,0.1-0.5,0.3-0.5C111.8,243.8,111.8,244,111.8,244.2z"/>
		<path d="M9.5,34.8c0.2,0,0.4,0.2,0.4,0.5c0,0.2-0.1,0.3-0.3,0.3c-0.3,0-0.5-0.2-0.5-0.5C9.1,34.9,9.2,34.8,9.5,34.8z"/>
		<path d="M150.9,1.1c-0.2,0-0.5-0.1-0.5-0.4c0-0.1,0.2-0.2,0.3-0.2c0.2,0.1,0.4,0.2,0.5,0.3C151.2,1,151.1,1.1,150.9,1.1z"/>
		<path d="M230.6,167.1c-0.1,0.1-0.2,0.2-0.4,0.2c0,0-0.2-0.2-0.1-0.2c0.1-0.1,0.2-0.2,0.3-0.3C230.5,166.9,230.5,167,230.6,167.1z"
			/>
		<path d="M26,36.6L26,36.6c0.1-0.1,0.2-0.3,0.3-0.5c0,0,0.1,0,0.1,0.1C26.4,36.5,26.2,36.5,26,36.6z"/>
		<path class="st0" d="M180.2,190.7c2.8-0.2,2.8-0.2,2.8,2.3c0,2.7,0.1,5.4,0.3,8c0.1,1.5-0.5,2.4-1.7,2.8c-0.9,0.3-1.5,0.7-2,1.6
			c-0.6,1.2-1.8,1.5-3,1.9c-1.6,0.5-2.7,1.8-4.1,2.6c-1,0.6-0.7,2.2,0.5,2.8c0.9,0.5,2,0.8,3,0.8c2.6,0.1,5.1,1,7.7,1.4
			c1.1,0.2,1.7,0.7,1.1,1.9c-1.1,2.7-2,5.4-3.8,7.7c-0.7,0.9-1.6,1.4-2.5,1.7c-1.3,0.4-1.9-0.2-1.7-1.5c0.2-1.2,0.3-2.4,0-3.6
			c-0.2-0.9-0.4-1.9-1.6-1.9c-1.2,0-2,0.7-1.9,2c0,2.5-0.7,4.7-1.6,7c-0.8,2-2.1,3.7-3.7,5.1c-0.6,0.5-1.2,1.1-1.7,1.7
			c-0.5,0.6-1,0.6-1.5-0.2c-0.8-1.1-0.9-2.4-0.9-3.6c-0.3-4.9-0.9-9.8-1.1-14.8c-0.1-2.9-0.1-5.9-0.5-8.9c-0.3-2.9,0-5.9-0.3-8.8
			c-0.1-0.6,0-1.2-0.3-1.7c-0.1-0.3-0.3-0.7-0.2-0.9c1.2-2.3-1-4.6,0-6.9c0.1-0.2-0.3-0.7-0.4-1c-0.5-1-0.5-3.3,0.3-3.8
			c0.9-0.7,2.1-0.9,3.3-0.4c1.9,0.8,3.4,0.2,5.2-0.7c2.7-1.4,4.8-3.9,8-4.4c0.8-0.1,1.6-0.2,2.4-0.4c1-0.2,1.4,0.4,1.4,1.1
			c-0.3,2.9,0.6,5.6,0.7,8.5C182.5,189.7,181.3,189.8,180.2,190.7z"/>
		<path class="st0" d="M134.8,178.8c1.5,0.7,3.3,0.2,5.1,0c0.8-0.1,1.6,0,2,0.9c0.3,0.6,0.9,0.7,1.5,1c1.5,0.6,1.9,2,0.8,3.3
			c-1.1,1.3-1.5,2.7-1.2,4.4c0.3,2,0.8,4.2-0.1,6.1c-0.9,1.7-0.4,3.3-0.2,4.9c0.2,1.6,0.3,3.3,0.3,4.9c0,1,0.2,2,0.7,3
			c0.7,1.5,0.3,3.2,0.4,4.8c0.1,0.8-0.1,1.5,0.2,2.3c1.2,3.8,1.6,7.7,1.4,11.7c-0.2,3.4,0.3,6.9,1,10.2c0.6,3,0.2,3.8-2.6,4.8
			c-2,0.7-3.9,1.6-5.7,2.9c-1.9,1.3-2.9,0.8-3.3-1.6c-0.5-2.8-1-5.6-1.5-8.4c-0.2-1.1,0.1-2.1,0.4-3c0.3-0.9,1.2-0.5,1.9-0.4
			c1.4,0.3,2.6,0.2,3.4-1.3c0.2-0.4,0.4-0.7,0.2-1.1c-1.5-3.6-2-7.6-3.5-11.2c-1.5-3.9-2.5-7.9-3-12.1c-0.2-1.5-0.1-3-0.8-4.5
			c-0.3-0.7-0.5-1.8,0-2.2c1.4-1,0.6-1.3-0.2-1.9c-0.4-0.3-0.6-0.9-0.7-1.4c-0.3-2-1-3.9-0.8-6c0.1-1.1,0.1-2.2-0.4-3.2
			c-0.5-0.8,0.3-1.4,0.8-1.9c0.6-0.5,0.9-1,0.7-1.8C131.4,180.5,133.1,178.8,134.8,178.8z"/>
		<path class="st0" d="M157.5,195c1.4-0.2,1.4,0.5,1.6,1.5c1.1,5,0.5,10,0.9,15c0.3,3.6,0,7.2,0.3,10.8c0.3,4,0.4,8,0.7,11.9
			c0.1,1.2-0.3,1.9-1.6,2.2c-1.6,0.4-2.8,1.6-4.2,2.8c0.1-1.6,0.8-2.8,1.4-3.9c0.2-0.4,0.6-0.8,0.3-1.2c-0.4-0.5-0.9-0.3-1.4-0.2
			c-1.9,0.5-1.9,0.4-2-1.5c-0.1-2.5,0.9-5,0-7.5c-0.2-0.5,0.3-0.8,0.6-1.1c1.7-2.2,1.1-4.8-0.9-6.1c-1-0.6-1.2-1.3-0.3-2.2
			c1-0.9,1.1-2.2,1.3-3.5c0.2-1.2-0.8-1.5-1.6-1.8c-0.9-0.3-1.1-0.7-1.1-1.5c-0.1-1,0.7-0.8,1.2-1c0.8-0.4,1.6-0.6,2.3-1.2
			c0.5-0.4,0.8-0.8,0.7-1.4c-0.1-0.6-0.5-1.1-1.2-1.2c-0.4-0.1-0.9-0.1-1.3-0.2c-2.2-0.1-2.5-0.2-2.4-2.4c0.1-1.9-0.6-3.7-0.1-5.6
			c-1.5-2.3,0-5.1-1.1-7.6c-0.6-1.4-1.1-3.5,1.2-4.7c0.7-0.4,1.5-1.7,0.9-3c-0.4-1,0.1-2.1,0.5-3c0.7-1.7,1.6-3.2,2.1-5
			c0.1-0.2,0.2-0.4,0.3-0.6c1.7-1.2,3.4-2.3,5.4-2.9c1-0.3,1.8,0.1,1.9,1.1c0.3,2,1.1,3.9,0.6,5.9c-0.6,2.1-1.4,2.5-3.3,1.5
			c-1.7-0.9-3-0.7-3.6,0.4c-1.2,2.2-1,3.8,0.8,4.8c1.2,0.7,1.4,2,1.6,3.1c0.4,2,0.6,4.1,0.8,6.2C158.9,193.8,158.8,193.9,157.5,195z
			"/>
		<path class="st0" d="M220,156.4c0.3,5.1,0,10.1,0,15.2c0,1,0.1,2.1-0.8,2.9c-0.2,0.2-0.3,0.5-0.1,0.9c0.9,2.7,1.2,5.4-0.4,8
			c-0.6,1-0.2,2.2-0.2,3.2c0.3,4.7-0.3,9.4,0.5,14.1c0.8,4.7,0.9,9.4,1.3,14.2c0,0.4,0.2,1-0.4,1.1c-0.5,0.1-0.8-0.4-0.8-0.9
			c0-1.2-0.7-1.8-1.7-2.4c-1.2-0.7-2-1.8-2.2-3.3c-0.5-3.6-0.9-7.2-1.4-10.8c-0.2-1.6-0.7-3.3-0.5-4.8c0.5-3.2-0.1-6.4,0.3-9.6
			c0.2-1.3-0.1-2.6,0.1-3.9c0.3-1.7,0.2-3.2,0-4.9c-0.3-2.5,0.1-5.2,0.3-7.8c0.1-0.6,0.2-1.3,0.1-1.8c-0.8-2.2,0.4-3.8,1.7-5.3
			c1-1.1,0.8-2-0.3-2.7c-1.9-1.3-1.9-3.3-2.1-5.2c-0.1-1.4-0.5-2.9,0.2-4.4c0.2-0.4,0.2-1,0.8-0.9c0.5,0.1,0.4,0.6,0.5,0.9
			c0.1,0.6,0.1,1.2,0.3,1.8c0.4,1.3,1.7,1.6,2.7,0.8c0.4-0.3,0.7-0.8,1.3-0.5c0.5,0.3,0.4,0.9,0.4,1.3
			C219.7,153.3,219.8,154.8,220,156.4z"/>
		<path class="st0" d="M145.5,56.7c1.5-1.3,2.8-2.6,4.2-3.8c1.9-1.6,3.3-3.6,4.5-5.7c0.5-0.8,0.9-1.4,2.3-1.3
			c2.2,0.1,4.5-0.2,6.6-1.3c2.6-1.4,5.3-2.5,8.2-3.1c1.7-0.4,3.4-0.6,5.2-0.2c0.8,0.2,1.6-0.1,2.2-0.8c0.4-0.5,0.6-1.1,0.4-1.7
			c-0.2-0.7-0.8-0.5-1.4-0.6c-1.3-0.3-2.6,0.3-3.9,0c1.7-0.4,3-1.7,5.3-1.1c1.9,0.5,3.6,1,5.1,2.2c1.1,0.8,2.6,1,3.9,1.6
			c1,0.5,2.1-0.3,2.8-1c1-1.1,1.1-0.5,1.3,0.4c0,0.2,0.1,0.4,0.2,0.6c-1.8,0.5-1.9,0.7-1.2,2.5c0.3,0.7,0.1,1-0.5,1
			c-2-0.1-3.6,1.1-5.5,1.4c-1.2,0.2-2.4,0.7-3.2,1.5c-0.9,1-1.9,1.1-3,0.8c-2.1-0.5-4-0.3-5.9,0.7c-1.3,0.7-2.8,0.8-4.3,1
			c-3,0.5-6,1-8.2,3.2c-0.5,0.5-1.1,0.4-1.7,0.3c-2.3-0.1-4,1-5.5,2.4c-1.2,1.1-2.3,1.9-4.1,1.3C148.3,56.7,147,56.9,145.5,56.7z"/>
		<path class="st0" d="M53.3,60.8c-2.9-0.3-5.9,0.5-8.8-0.3c-1.9-0.5-4-0.1-5.6-0.9c-1.8-0.9-3.7-1-5.5-1.3
			c-1.2-0.2-2.6,0.1-3.6-0.7c-2.1-1.7-4.3-3.4-5.5-6c-0.1-0.1-0.2-0.3-0.3-0.4c-2-0.9-2.1-2.8-2.5-4.5c-0.4-1.4-0.9-2.5-1.8-3.6
			c-1.1-1.3-1.8-2.6-1.9-4.6c0-1.8-0.3-3.9-1.1-5.7c-0.2-0.4-0.6-0.8,0-1.2c0.5-0.3,0.9,0.1,1.3,0.5c0.7,0.7,1.3,1.1,1.1,2.4
			c-0.2,1,1.3,1.7,2.2,2.1c1.2,0.5,2.1,1.2,2.5,2.4c0.6,1.6,1.9,2.7,2.9,3.9c0.9,1,1.2,1.9,1.1,3c0,0.8,0.2,1.2,1,1.4
			c0.9,0.2,1.4,0.7,1.5,1.8c0.1,1.5,1.4,2.7,2.6,3.2c1.5,0.7,3.1,1.3,5,1.4c1.8,0.1,3.9-0.5,5.8,1c1.2,0.9,3.2,0.7,4.6,0.3
			c1.9-0.6,3.7-0.3,5.5-0.4c1-0.1,1.8,0.1,2.5,0.8c0.2,0.2,0.4,0.4,0.5,0.6C57.2,57.6,54.8,60.9,53.3,60.8z"/>
		<path class="st0" d="M120.5,52.9c1.5,0.4,3.4,0.2,5.1,0.2c3.8-0.1,7.7-0.2,11.2-2.4c0.8-0.5,1.8-0.7,2.7-1.1
			c1.3-0.6,2.5-1.3,3.4-2.6c1-1.5,2.5-2.7,4.4-3.5c1.6-0.6,2.4-2.3,3.1-3.8c0.3-0.8,0.8-1.5,1.2-2.3c1.7-2.8,3.1-5.7,5.2-8.2
			c1.2-1.4,2.4-2.7,3.2-4.4c0.3-0.7,0.8-0.4,1.2,0.1c0.4,0.6,0.4,1.3,0.1,1.9c-1.4,2.5-2.4,5.2-3.6,7.8c-1.1,2.4-2.4,4.7-3.8,7
			c-0.7,1.1-1.1,2.2-2.7,1.3c-0.6-0.3-1.1,0.1-1.5,0.6c-1.8,2.3-4,4.3-6,6.4c-0.7,0.8-1.2,1.8-1.8,2.7c-2.2,3.8-5.9,4.9-9.9,5.3
			c-1.2,0.1-2.6,0-3.7,0.4c-2,0.9-3.7-0.7-5.6-0.6c-1.3,0.1-2.6-0.1-4-0.5c-1.7-0.6-1.2-1.7-1.2-2.8c0-1.1,0.7-1.7,1.8-1.6
			C119.6,52.9,119.9,52.9,120.5,52.9z"/>
		<path class="st0" d="M214.1,137.9c-1.4,1.9-2.5,3.4-4.6,3.9c-0.8,0.2-1.2,0.8-1,1.8c0.3,1.6,0.8,3.1-0.5,4.6
			c-0.4,0.5-0.2,1.6-0.2,2.4c0,0.7,0,1.3-0.1,2c-0.3,2.2-0.3,2.2,1.8,3c0.7,0.3,1.2,0.8,1.2,1.6c0,0.7,0,1.4,0.3,2.1
			c0.3,0.7-0.1,1.1-0.5,1.5c-1.9,1.8-4.1,3.3-6.6,4.2c-1.9,0.6-3.2,2.1-4.9,2.9c-1.4,0.7-1.3,0.6-1.5-0.9c-0.3-1.9,0.6-3.4,1.5-4.9
			c0.2-0.3,0.6-0.6,0.6-0.9c0.9-3.9,4-6.6,5.6-10.1c0.2-0.4,0.6-0.8,0.2-1.2c-0.5-0.4-1.1-0.5-1.5,0c-0.9,1-1.8,2.1-2.6,3.2
			c-1.2,1.7-2.8,3-3.7,5c-0.3,0.8-1.2,0.3-1.3-0.3c-0.3-1.9-0.6-3.8-0.6-5.8c0-0.9,0.7-1.7,1.6-2.1c1.2-0.5,2.2-1.2,3-2.2
			c0.5-0.6,1.1-0.7,1.7-0.9c0.9-0.4,1.9-0.7,1.9-2c0-0.4,0.2-0.6,0.5-0.7c2.5-1.5,4.2-3.7,6.1-5.8
			C211.7,137.1,212.7,138.3,214.1,137.9z"/>
		<path class="st0" d="M189.9,47.4c-0.6,1.2-1.7,1.6-2.7,2.1c-1.9,0.9-3.5,2.3-5,3.7c-0.6,0.6-1.3,1.1-2.1,1.2
			c-3,0.4-5.6,1.7-7.8,3.8c-0.5,0.5-1,0.8-1.7,0.9c-4.2,0.3-7.5,2.8-10.9,4.9c-0.9,0.5-1.7,1-2.7,1c-1.3,0.1-2.6,0.4-3.8,0.8
			c-0.7,0.2-1.5,0.4-2-0.1c-0.4-0.4,0.1-1.1,0.4-1.6c0.5-1.3,1.6-2.4,0.9-4c-0.1-0.3,0.2-0.7,0.5-0.8c1.7-0.8,3-2.3,4.7-3.3
			c0.5-0.3,1-0.3,1.4-0.1c1.4,0.8,2.6,0.2,3.4-0.8c1.8-2.2,4.2-2.8,6.7-2.8c2.1,0,3.9-0.7,5.8-1.5c1.3-0.6,2.4-0.9,3.9-0.2
			c1.6,0.7,3.3,0.5,4.7-0.8c0.5-0.4,1.1-0.7,1.7-0.9C186.7,48.4,188.4,48.2,189.9,47.4z"/>
		<path class="st0" d="M168.2,176.2c-2.5-2.4-2.4-6.1,0.2-8.2c0.8-0.7,1.5-1.4,2.2-2.2c0.5-0.6,1.1-0.9,1.8-0.4
			c2.2,1.4,4.6,2,7.1,2.2c1.1,0.1,1.4,0.6,1.4,1.6c0,1.6,0.1,3.2,0.2,4.7c0.1,1.4-0.5,2.3-1.9,2.4c-3.8,0.4-7,2.4-10,4.5
			c-0.8,0.6-1.8,0.5-2.7,0.9c-0.3,0.2-0.9-0.2-1.1-0.6c-0.2-0.3,0-0.5,0.2-0.7C166.9,179.3,167.9,178,168.2,176.2L168.2,176.2z"/>
		<path class="st0" d="M165.8,281.3c1.4,0,2.7,0.5,3.9,1.2c1.3,0.8,2.6,1.4,3.8,2.2c1.1,0.7,2.4,1.5,3.8,0.6
			c0.3-0.2,0.7-0.2,0.8,0.2c0.1,0.3-0.2,0.5-0.4,0.6c-2.3,2.2-4.8,4-7.9,4.3c-2.1,0.2-4.2,0.8-6.3,0.2c-0.6-0.2-1.2-0.4-1.6-1
			c-1.3-2.1-1.1-5.3,0.6-7.2C163.1,281.8,164.6,281.2,165.8,281.3z"/>
		<path class="st0" d="M194,182.5c0.6,3.9-0.2,4.1-4,5.1c-1.1,0.3-2.2,0.4-3.2,0.8c-0.9,0.3-1.3,0-1.4-0.8c-0.5-2.5-0.4-5,0.2-7.4
			c0.2-1,0.6-1.9,0.4-3c-0.2-1.2,0.7-2.1,1.9-2.2c1.7-0.1,3.3,0.7,5,0.8c0.3,0,0.4,0.2,0.4,0.5c-0.2,1.1,0.4,2.1,0.7,3.2
			C194.1,180.3,194,181.4,194,182.5z"/>
		<path class="st0" d="M193.9,189.7c0.1,1.4-0.9,2.1-1.9,2.2c-2,0.2-2.4,1.6-2.8,3.1c-0.3,1-0.4,2-0.2,3.1c0.1,0.5,0.1,1-0.4,1.3
			c-0.6,0.4-1-0.2-1.5-0.4c-0.7-0.3-0.8-1-0.9-1.7c-0.3-2.1-0.5-4.1-0.7-6.2c-0.1-1,0.5-1.7,1.5-1.9c1.8-0.3,3.6-0.6,5.3-1.6
			C193.3,187.2,194,188,193.9,189.7z"/>
		<path class="st0" d="M193.7,145.8c-0.2,0-0.5,0.3-0.7,0c-0.2-0.4-0.2-0.8,0.1-1.1c2.1-2.3,3.9-5,6.5-6.8c0.2-0.1,0.4-0.2,0.5-0.4
			c0.2-0.7,0.5-1.1,1.2-1.1c1,0,2,0.1,2.8,0.6c0.5,0.3,0.6,0.9,0.2,1.4c-1.7,2.4-3.6,4.7-6.6,5.5c-0.9,0.2-1.5,0.8-2.2,1.3
			C194.9,145.6,194.4,145.9,193.7,145.8z"/>
		<path class="st0" d="M169.2,39.5c-2.4,1.2-5,1.6-7.1,3.2c-1.1,0.8-2.8,0.8-4.3,0.9c-0.8,0-1.1-0.4-0.8-1.2c0.4-1,1-1.9,1.3-3
			c0.1-0.4,0.5-0.6,0.9-0.6c2.2-0.1,4.4-0.9,6.6,0.1C166.8,39.4,168,39,169.2,39.5z"/>
		<path class="st0" d="M194.1,170c0,1.9-0.8,2.6-2.5,2.3c-0.8-0.1-1.5-0.2-2.3-0.1c-1.7,0.1-2.7-1.1-2.5-2.8
			c0.1-0.8-0.3-1.5,0.1-2.2c0.7-1.2,2.7-1.4,3.7-0.4c0.6,0.6,1.2,1,1.9,1.2C193.9,168.2,194.1,169.1,194.1,170z"/>
		<path class="st0" d="M90.6,231.5c-0.2,0.1-0.5,0.1-0.6-0.1c-0.2-0.3,0-0.7,0.2-0.9c2.1-1.4,3.8-3.3,5.8-4.8c1.4-1,2.5-0.6,3,1.1
			c0.2,0.7,1.2,1.2,0.8,2c-0.5,1-1.6,0.8-2.5,1c-1.9,0.5-3.8,1-5.7,1.5C91.4,231.4,91,231.4,90.6,231.5z"/>
		<path class="st0" d="M154.3,241.8c-0.3,0.9-0.9,1.8-1,2.7c-0.1,3.1-2.3,3.7-4.6,4.3c-0.4,0.1-0.8,0.2-1-0.3
			c-0.2-0.5,0.1-0.9,0.6-1c1.5-0.2,1.5-1.1,1.4-2.2c0-0.6,0-1.2,0-1.8c0.1-1.3,0.6-2.3,2.2-2.3c0.3,0,0.7-0.1,0.9-0.3
			C154.2,240,154,241.2,154.3,241.8z"/>
		<path class="st0" d="M219.6,136.5c0.1,1.6,0.2,3.2,0.2,4.9c0,0.6,0.1,1.2,0,1.8c-0.1,0.4,0,1-0.5,1.1c-0.5,0.2-0.7-0.4-1-0.7
			c-0.3-0.3-0.6-0.6-1-0.8c-1-0.7-0.9-1.4-0.5-2.4c1-2.3,1.6-4.7,1.1-7.2c-0.2-0.7-0.3-1.3,0.6-1.5c1-0.2,0.8,0.7,0.9,1.2
			C219.5,134.1,219.5,135.3,219.6,136.5C219.6,136.5,219.6,136.5,219.6,136.5z"/>
		<path class="st0" d="M178.1,160.9c2.1-1.7,4.1-2.8,6.4-3.5c0.6-0.2,0.9-0.6,1.3-0.9c0.4-0.3,0.9-0.4,1.4-0.1
			c0.5,0.4,0.2,0.8,0.1,1.2c0,0.1-0.1,0.2-0.1,0.3c-0.5,0.8,0,2.1-0.8,2.5c-1,0.5-2.2,0.5-3.3,0.7c-0.3,0-0.5,0-0.8,0
			C180.9,161,179.6,160.9,178.1,160.9z"/>
		<path class="st0" d="M210.2,53c0.1,0.6-0.1,0.9-0.4,1.1c-0.4,0.3-0.7,0-1-0.2c-0.6-0.5-1.2-0.9-1.9-1.3c-1-0.7-2.6-1.1-1-2.8
			c0.4-0.4,0-1-0.5-1.4c-0.5-0.3-1-0.7-1.1-1.3c-0.1-0.5-0.1-1.2,0.4-1.5c0.6-0.4,1,0.2,1.4,0.6c1.6,1.8,2.7,4.1,4,6.1
			C210.2,52.5,210.2,52.8,210.2,53z"/>
		<path class="st0" d="M71.1,86.9c0.1-0.4,0.3-1,0.6-1.5c0.9-2,1.4-4,1.5-6.2c0-0.4,0.1-0.8,0.5-0.9c0.2-0.1,0.5-0.1,0.6,0
			c0.4,0.3,0.1,0.7,0.1,1c-0.2,2.2-1.2,4.4,0.4,6.5c0.3,0.4,0.4,1-0.4,1.3c-0.6,0.3-1.1,0.9-1.7,1.2C71.7,88.7,71,88.2,71.1,86.9z"
			/>
		<path class="st0" d="M188,142.9c0,0.9-0.5,1.2-0.9,1.4c-0.4,0.2-0.8,0.1-1.2-0.3c-1.6-1.7-1.9-4-2.7-6c-0.2-0.4,0.2-1.4,1-0.9
			C186.2,138.6,186.9,141,188,142.9z"/>
		<path class="st0" d="M188.1,162.7c-3.6,2-7.4,2.5-11.3,1.1c-0.3-0.1-0.9-0.1-0.8-0.6c0-0.5,0.6-0.5,0.9-0.4
			C180.6,163,184.3,163.1,188.1,162.7z"/>
		<path class="st0" d="M176.5,150.6c1.2-2.2,2.9-3.4,5-4.2c0.7-0.3,1.3,0.2,1.7,0.7c0.5,0.6-0.1,1-0.5,1.3
			C181,150.1,179.1,150.9,176.5,150.6z"/>
		<path class="st0" d="M177.3,210c1.5,0,2.4-1.3,3.8-1.5c0.4-0.1,0.8-0.3,1,0.1c0.8,0.9,1.6,1.7,2.1,2.8c0.2,0.5,0.2,1.1-0.6,0.9
			c-2.1-0.6-4.3-1.2-6.4-1.8C177.3,210.3,177.3,210.1,177.3,210z"/>
		<path class="st0" d="M66.5,75.1c0.7,0.4,1,0.1,1.5-0.4c0.7-0.7,1.7-0.3,2,0.1c0.6,0.6,0.6,1.6,0.2,2.5c-0.2,0.5-0.6,0.2-1,0.1
			c-1.5-0.7-3-1.5-4.7-0.1c-0.7,0.6-1.2-0.3-1.5-0.8c-0.3-0.7,0.4-0.8,0.8-0.9C64.7,75.3,65.6,75.2,66.5,75.1z"/>
		<path class="st0" d="M138.5,173.9c0.5,0.2,1.6-0.6,1.7,0.6c0.1,1.3-1,1-1.8,1.1c-1.5,0.1-3.1,0.3-4.6,0.4c-0.4,0-0.9,0-1-0.6
			c-0.1-0.6,0.5-0.7,0.9-0.8C135.3,174.5,136.7,173.7,138.5,173.9z"/>
		<path class="st0" d="M124.2,62.4c-0.6,0.4-1.2,0.8-1.6,1.3c-0.6,0.6-1.2,0.6-1.8,0.3c-0.6-0.3-1.1-0.4-1.7-0.2
			c-0.4,0.1-0.8,0-1.1-0.3c-0.3-0.3-0.9-0.4-0.7-1c0.2-0.5,0.6-0.3,1-0.4C120.3,62,122.2,62.5,124.2,62.4z"/>
		<path class="st0" d="M132.2,76.8c2.3-0.1,2.7-2,3.5-3.4c0.1-0.2,0.1-0.5,0.3-0.8c0.3-0.4,0.4-1.3,1-1.1c0.8,0.3,0.1,1,0,1.5
			c-0.1,0.6-0.3,1.1-0.4,1.7C135.9,77,134.7,77.6,132.2,76.8z"/>
		<path class="st0" d="M231.2,131.5c0.3-1.3,0.2-2.6,0.3-3.8c0-0.6,0.2-1.2,0.6-1.6c0.1-0.2,0.4-0.3,0.6-0.1
			c0.1,0.1,0.2,0.3,0.2,0.4c-0.8,1.5,0.5,3.1-0.1,4.6c-0.1,0.2,0,0.4-0.1,0.6c-0.2,0.5-0.4,1.2-1,1.1
			C231,132.5,231.4,131.8,231.2,131.5z"/>
		<path class="st0" d="M215.7,127c-0.4,0-0.4-0.2-0.4-0.6c0.1-0.9,2.1-3.5,3.1-3.8c0.6-0.2,0.8,0,0.7,0.6c-0.1,0.6-2.7,3.6-3.3,3.8
			C215.8,127,215.7,127,215.7,127z"/>
		<path class="st0" d="M147.9,202.6c-0.1,0.7-0.1,1.3-0.8,1.2c-0.5,0-0.8-0.5-0.7-0.9c0.2-1.6,0.3-3.3,0-4.9c0-0.2,0-0.5,0.3-0.5
			c0.2,0,0.4,0.1,0.5,0.3c0.3,0.2,0.2,0.6,0.2,0.9C147.7,200.1,147.6,201.4,147.9,202.6z"/>
		<path class="st0" d="M174.7,153.8c0,0.4-0.4,0.6-0.6,0.9c-0.8,1-1.9,1.4-2.9,2.1c-0.2,0.2-0.5,0.4-0.7,0.1
			c-0.2-0.2-0.1-0.5,0.1-0.7c1-0.7,1.7-1.8,2.3-2.9c0.2-0.4,0.8-0.7,1.3-0.4C174.6,153.1,174.6,153.5,174.7,153.8z"/>
		<path class="st0" d="M215,50.4c0,0.5-0.2,0.8-0.6,0.5c-1.1-0.7-2.5-1.1-3.1-2.5c-0.2-0.5-0.4-1.1,0.2-1.4c0.6-0.3,0.7,0.3,0.9,0.6
			c0.5,0.5,1.1,1,1.7,1.5C214.6,49.5,214.9,49.9,215,50.4z"/>
		<path class="st0" d="M139.2,89.3c-1.4,0.4-2.7,0.9-4.1,0.9c-0.4,0-0.8,0.2-1-0.3c-0.2-0.5,0.3-0.6,0.6-0.9
			C135.8,88.2,138.2,88.3,139.2,89.3z"/>
		<path class="st0" d="M81.9,42.8c1.3-0.7,4.1-0.7,6.1-0.2C86.5,43.8,84,43.9,81.9,42.8z"/>
		<path class="st0" d="M228.7,105.7c-0.1,0.8-0.8,1.7-0.5,2.8c0,0.2-0.2,0.4-0.5,0.3c-0.3,0-0.4-0.3-0.6-0.5
			c-0.4-0.8-0.2-3.2,0.4-3.9c0.2-0.2,0.4-0.3,0.6-0.2C228.8,104.5,228.7,105,228.7,105.7z"/>
		<path class="st0" d="M149.4,228.2c0.1-0.8-0.3-1.9,0.7-1.8c0.5,0,0.9,1.1,0.6,1.8c-0.3,0.8,0.2,1.6,0,2.4
			c-0.1,0.3-0.1,0.6-0.4,0.6c-0.4,0-0.4-0.2-0.4-0.5C149.8,229.8,149.1,229,149.4,228.2z"/>
		<path class="st0" d="M100.9,236.3c0.1-1,0.9-1.3,1.6-1.5c0.6-0.2,1.3,0.3,1.4,0.8c0.1,0.6-0.6,0.5-1,0.5
			C102.2,236.3,101.6,236.5,100.9,236.3z"/>
		<path class="st0" d="M74.4,71.6c-0.1,0.4-0.1,1.1-0.6,1c-0.7,0-1.2-0.5-1.4-1.2c-0.1-0.5,0.2-0.8,0.7-0.7
			C73.6,70.8,74.4,70.7,74.4,71.6z"/>
		<path class="st0" d="M63.7,72c0.4,0,1-0.1,1,0.5c0,0.5-0.6,0.7-1.2,0.7c-0.4,0-1-0.2-1-0.6C62.6,71.7,63.3,72.2,63.7,72z"/>
		<path class="st0" d="M202,39.2c0.4,0.3,1.1,0.2,1.1,0.9c0,0.4-0.4,0.7-0.8,0.6c-0.5-0.1-0.8-0.6-0.8-1.1
			C201.4,39.2,201.7,39.1,202,39.2z"/>
		<path class="st0" d="M193.6,197.2c0,0.4,0,0.8-0.5,0.9c-0.4,0.1-0.5-0.3-0.5-0.7c0-0.4,0-0.8,0.5-0.9
			C193.6,196.4,193.6,196.8,193.6,197.2z"/>
		<path class="st0" d="M212,55.8c0.6-0.3,1.1-0.4,1.5,0.2c0.1,0.2,0.1,0.5-0.1,0.5C212.7,56.7,212.3,56.3,212,55.8z"/>
		<path class="st0" d="M67.1,71.7c0.4-1.2,1.1-1.3,2.3-0.9C68.4,70.8,67.8,71.4,67.1,71.7z"/>
		<path class="st0" d="M75.2,76.4c0,0.3-0.2,0.5-0.5,0.5c-0.2,0-0.4-0.1-0.4-0.4c0-0.3,0.2-0.5,0.5-0.5C75,76,75.1,76.1,75.2,76.4z"
			/>
		<path class="st0" d="M225.6,117.4c-0.3,0-0.5-0.2-0.5-0.5c0-0.2,0.1-0.4,0.4-0.4c0.2,0.1,0.4,0.2,0.4,0.4
			C226,117.1,225.8,117.3,225.6,117.4z"/>
		<path class="st0" d="M199.2,38.3c0.6-0.5,1-0.4,1.4-0.1C200.2,38.7,199.8,38.6,199.2,38.3z"/>
		<path class="st0" d="M167.9,164.1c-0.4,0-0.5-0.1-0.5-0.2c0-0.1,0.2-0.2,0.3-0.3c0.2-0.1,0.3,0,0.3,0.2
			C168,163.9,167.9,164,167.9,164.1z"/>
		<path class="st0" d="M207,42.9c0-0.1,0.1-0.2,0.1-0.3c0.1,0.1,0.3,0.1,0.3,0.3c0,0,0,0.2-0.1,0.3C207.3,43,207.1,42.9,207,42.9z"
			/>
		<path class="st0" d="M220.3,121.6c0,0.1-0.1,0.2-0.1,0.3c-0.1,0.1-0.2,0-0.2-0.1c0-0.1,0.1-0.2,0.1-0.3
			C220.2,121.4,220.3,121.5,220.3,121.6z"/>
		<path d="M164.3,193.7c0,0.1,0.1,0.1,0.1,0.2c0,0-0.1,0.1-0.1,0.1c-0.1,0-0.1-0.1-0.2-0.1C164.1,193.8,164.2,193.7,164.3,193.7z"/>
		<path d="M140.2,196.7c0,0.1,0.1,0.2,0.2,0.3c-0.1,0.1-0.3,0.2-0.4,0.2c-0.1,0-0.3-0.2-0.3-0.3C139.8,196.7,140,196.6,140.2,196.7z
			"/>
		<path d="M135.8,197.3c-0.1,0.1-0.1,0.2-0.2,0.2c-0.2,0.1-0.3,0-0.3-0.2c0-0.1,0.1-0.2,0.2-0.2
			C135.7,197.1,135.7,197.2,135.8,197.3z"/>
		<path d="M216.3,176.4c0.1,0.1,0.2,0.3,0.2,0.4c0,0.3-0.3,0.2-0.5,0.2c-0.2,0-0.3-0.1-0.2-0.3C215.9,176.6,216.1,176.6,216.3,176.4
			z"/>
		<path d="M22.8,40.8c-0.3,0-0.6-0.2-0.6-0.5c0-0.3,0.3-0.5,0.6-0.4c0.2,0,0.4,0.2,0.5,0.4C23.4,40.7,23.1,40.7,22.8,40.8z"/>
		<path d="M168.2,176.2c0.4-0.1,0.8-0.3,1.3-0.3c0.4-0.1,0.8,0,1,0.4c0.1,0.3,0.1,0.5-0.2,0.7c-0.3,0.3-0.7,0.2-1,0
			C168.9,176.8,168.6,176.5,168.2,176.2L168.2,176.2z"/>
	</g>
</g>
</svg>
